<?xml version="1.0" encoding="UTF-8"?>
<svg id="b" xmlns="http://www.w3.org/2000/svg" viewBox="0 0 1284.49 2426.28">
  <polygon points="999.05 142.73 999.05 285.44 856.33 285.44 856.33 428.16 999.05 428.16 999.05 285.45 1141.77 285.45 1141.77 142.73 999.05 142.73"/>
  <rect x="713.61" y="428.16" width="142.72" height="142.72"/>
  <rect x="285.45" y="856.32" width="142.72" height="142.72"/>
  <rect x="142.72" y="999.04" width="142.72" height="142.72"/>
  <polygon points="999.05 856.33 856.33 856.33 856.33 713.61 713.61 713.61 713.61 856.33 856.33 856.33 856.33 999.05 999.04 999.05 999.04 1141.76 1141.76 1141.76 1141.76 999.04 999.05 999.04 999.05 856.33"/>
  <polygon points="570.89 428.17 428.17 428.17 428.17 570.89 570.89 570.89 570.89 570.89 570.89 713.6 428.17 713.6 428.17 856.32 570.89 856.32 570.89 713.61 713.61 713.61 713.61 713.6 713.61 570.89 713.61 570.88 570.89 570.88 570.89 428.17"/>
  <polygon points="285.44 428.16 428.16 428.16 428.16 285.44 285.44 285.44 285.44 142.72 142.72 142.72 142.72 285.44 285.44 285.44 285.44 428.16"/>
  <polygon points="428.16 1284.51 428.16 1427.23 713.61 1427.23 785.12 1427.23 856.33 1427.23 856.33 1569.95 999.05 1569.95 999.05 1427.23 856.33 1427.23 856.33 1284.51 785.12 1284.51 785.12 1284.51 428.16 1284.51"/>
  <polygon points="285.44 1878.41 285.44 1569.95 428.16 1569.95 428.16 1427.23 285.44 1427.23 285.44 1569.95 142.72 1569.95 142.72 1855.39 142.72 1855.39 142.72 1998.11 285.44 1998.11 285.44 1878.41 285.44 1878.41"/>
  <polygon points="999.04 1855.39 999.04 1904.71 999.04 1998.11 1141.76 1998.11 1141.76 1904.71 1141.76 1904.71 1141.76 1569.96 999.04 1569.96 999.04 1855.39"/>
  <polygon points="713.61 2140.84 428.16 2140.84 428.16 2283.56 742.51 2283.56 742.51 2283.56 856.33 2283.56 856.33 2140.84 713.61 2140.84 713.61 2140.84"/>
  <rect x="856.32" y="1998.12" width="142.72" height="142.72"/>
  <rect x="285.44" y="1998.11" width="142.72" height="142.72"/>
</svg>