<?xml version="1.0" encoding="UTF-8"?>
<svg id="Layer_2" data-name="Layer 2" xmlns="http://www.w3.org/2000/svg" viewBox="0 0 2564.18 2426.25">
  <polygon points="214.08 285.44 71.36 285.44 71.36 428.16 71.36 570.88 214.08 570.88 214.08 428.16 214.08 285.44"/>
  <polygon points="356.8 570.88 214.08 570.88 214.08 713.6 214.08 856.32 356.8 856.32 356.8 713.6 356.8 570.88"/>
  <polygon points="499.52 856.32 356.8 856.32 356.8 999.05 356.8 1141.77 499.52 1141.77 499.52 999.05 499.52 856.32"/>
  <polygon points="784.96 1284.49 642.24 1284.49 642.24 1427.21 642.24 1569.93 784.96 1569.93 784.96 1427.21 784.96 1284.49"/>
  <polygon points="927.68 1569.93 784.96 1569.93 784.96 1712.65 784.96 1855.37 927.68 1855.37 927.68 1712.65 927.68 1569.93"/>
  <polygon points="927.68 1998.09 927.68 2140.81 1070.41 2140.81 1070.41 1998.09 1070.41 1855.37 927.68 1855.37 927.68 1998.09"/>
  <polygon points="1070.41 428.16 1070.41 285.44 927.68 285.44 927.68 428.16 927.68 570.88 1070.41 570.88 1070.41 428.16"/>
  <polygon points="927.68 713.6 927.68 570.88 784.96 570.88 784.96 713.6 784.96 856.32 927.68 856.32 927.68 713.6"/>
  <polygon points="784.96 999.05 784.96 856.32 642.24 856.32 642.24 999.05 642.24 1141.77 784.96 1141.77 784.96 999.05"/>
  <rect x="499.52" y="1141.77" width="142.72" height="142.72"/>
  <polygon points="356.8 1427.21 356.8 1569.93 499.52 1569.93 499.52 1427.21 499.52 1284.49 356.8 1284.49 356.8 1427.21"/>
  <polygon points="214.08 1712.65 214.08 1855.37 356.8 1855.37 356.8 1712.65 356.8 1569.93 214.08 1569.93 214.08 1712.65"/>
  <polygon points="71.36 1998.09 71.36 2140.81 214.08 2140.81 214.08 1998.09 214.08 1855.37 71.36 1855.37 71.36 1998.09"/>
  <polygon points="1354.35 1284.49 1211.62 1284.49 1211.62 1427.21 1211.62 1569.93 1354.35 1569.93 1354.35 1427.21 1354.35 1284.49"/>
  <polygon points="1497.07 1569.93 1354.35 1569.93 1354.35 1712.65 1354.35 1855.37 1497.07 1855.37 1497.07 1712.65 1497.07 1569.93"/>
  <polygon points="1497.07 713.6 1497.07 570.88 1354.35 570.88 1354.35 713.6 1354.35 856.32 1497.07 856.32 1497.07 713.6"/>
  <polygon points="1354.35 999.05 1354.35 856.32 1211.62 856.32 1211.62 999.05 1211.62 1141.77 1354.35 1141.77 1354.35 999.05"/>
  <rect x="1068.9" y="1141.77" width="142.72" height="142.72"/>
  <polygon points="2207.37 1427.21 2207.37 1569.93 2350.09 1569.93 2350.09 1427.21 2350.09 1284.49 2207.37 1284.49 2207.37 1427.21"/>
  <polygon points="2064.65 1712.65 2064.65 1855.37 2207.37 1855.37 2207.37 1712.65 2207.37 1569.93 2064.65 1569.93 2064.65 1712.65"/>
  <polygon points="1921.93 1855.37 1497.07 1855.37 1497.07 1998.09 1497.07 2140.81 1921.93 2140.81 1969.49 2140.81 2064.65 2140.81 2064.65 1998.09 2064.65 1855.37 1969.49 1855.37 1921.93 1855.37"/>
  <polygon points="1639.79 570.88 2064.65 570.88 2064.65 428.16 2064.65 285.44 1639.79 285.44 1593.39 285.44 1497.07 285.44 1497.07 428.16 1497.07 570.88 1593.39 570.88 1639.79 570.88"/>
  <polygon points="2064.65 856.32 2207.37 856.32 2207.37 713.6 2207.37 570.88 2064.65 570.88 2064.65 713.6 2064.65 856.32"/>
  <polygon points="2207.37 1141.77 2350.09 1141.77 2350.09 999.05 2350.09 856.32 2207.37 856.32 2207.37 999.05 2207.37 1141.77"/>
  <rect x="2350.09" y="1141.77" width="142.72" height="142.72"/>
</svg>